<?xml version="1.0" encoding="utf-8"?>
<?xml-stylesheet type="text/xsl" href="rss1.xsl"?>
<rss version="2.0" xmlns:atom="http://www.w3.org/2005/Atom" xmlns:content="http://purl.org/rss/1.0/modules/content/" xmlns:dc="http://purl.org/dc/elements/1.1/" xmlns:media="http://search.yahoo.com/mrss/">
<channel>
 <title>Getty</title>
 <link>http://www.gettyimg.com/</link>
 <atom:link href="http://www.gettyimg.com/" rel="self" type="application/rss+xml" />

 
                <item>
                <title><![CDATA[【Singles (lossless)】FLAC - Jueun - 2024 - Stay [Single] [24bit-96kHz]]]></title>
                <link><![CDATA[https://sharemania.us/threads/jueun-2024-stay-single-24bit-96khz.248198/]]></link>
                <description><![CDATA[<article>
<blockquote class="messageText SelectQuoteContainer ugc baseHtml">
<div style="text-align: center"><img src="https://i.imgur.com/R0wpjfn.jpeg" class="bbCodeImage LbImage" alt="[​IMG]" data-url="https://i.imgur.com/R0wpjfn.jpeg" style=""> <br>
<br>
<b>Artist</b>: Jueun (주은)<br>
<b>Single</b>: Stay<br>
<b>Date</b>: 28 June 2024<br>
<b>Genre</b>: Rock/Metal<br>
<b>Quality</b>: 24bit-96kHz<br>
<b>Country</b>: South Korea<br>
<b>Size</b>: 99,5MB<br>
<br>
<b>Tracklist</b>:<br>
<br>
1. Stay (Original Version) 03:00<br>
2. Stay (Synth Pop Version) 03:01<br>
<br>
<b><span style="font-size: 22px"><span style="color: #b30000">Send.cm</span></span></b>:<br>
<br>
<div class="bbCodeBlock bbCodeVfcHH HiddenContent">
<div class="attribution type">Hidden Content:</div>
<blockquote>You must either reply or click 'Like' to see the hidden information contained here.</blockquote>
</div></div>
<div class="messageTextEndMarker">&nbsp;</div>
</blockquote>
</article>]]></description>
                <author><![CDATA[XRB80]]></author>
                </item>

                
                <item>
                <title><![CDATA[【Albums (lossless)】WAV - Project Spirious - Legends of Arkeyis (Original Soundtrack)]]></title>
                <link><![CDATA[https://sharemania.us/threads/project-spirious-legends-of-arkeyis-original-soundtrack.248196/]]></link>
                <description><![CDATA[<article>
<blockquote class="messageText SelectQuoteContainer ugc baseHtml">
<img src="https://ia903209.us.archive.org/21/items/projectspiriouslegendsofarkeyisost/LEGENDS%20OF%20ARKEYIS%20ALBUM%20COVER.png" class="bbCodeImage LbImage" alt="[​IMG]" data-url="https://ia903209.us.archive.org/21/items/projectspiriouslegendsofarkeyisost/LEGENDS%20OF%20ARKEYIS%20ALBUM%20COVER.png" style=""> <br>
Explore the world that surrounds to many kinds of the universe. Discover for yourself in order to see which path awaits for you.............................<br>
<br>
<div class="bbCodeBlock bbCodeVfcHH HiddenContent">
<div class="attribution type">Hidden Content:</div>
<blockquote>You must either reply or click 'Like' to see the hidden information contained here.</blockquote>
</div>
<div class="messageTextEndMarker">&nbsp;</div>
</blockquote>
</article>]]></description>
                <author><![CDATA[Benjo4Ever]]></author>
                </item>

                
                <item>
                <title><![CDATA[【HD Live Performances】WEB-RiP - Anitta - Citi Concert Series [May-31-2024] (TODAY) 1080p WEB-DL AAC2.0 x264 CELOBRAZiL-HDMania [CC]]]></title>
                <link><![CDATA[https://sharemania.us/threads/anitta-citi-concert-series-may-31-2024-today-1080p-web-dl-aac2-0-x264-celobrazil-hdmania-cc.248197/]]></link>
                <description><![CDATA[<article>
<blockquote class="messageText SelectQuoteContainer ugc baseHtml">
<div style="text-align: center"><b><span style="color: red">Anitta - Citi Concert Series [May-31-2024] (TODAY) 1080p WEB-DL AAC2.0 x264 CELOBRAZiL-HDMania [CC]</span></b>​</div><br>
<div style="text-align: center"><img src="https://media-cldnry.s-nbcnews.com/image/upload/t_fit-1240w,f_auto,q_auto:best/rockcms/2024-05/citi-concert-series-anitta-2x1-2024-jp-240502-4e0aad.jpg" class="bbCodeImage LbImage" alt="[​IMG]" data-url="https://media-cldnry.s-nbcnews.com/image/upload/t_fit-1240w,f_auto,q_auto:best/rockcms/2024-05/citi-concert-series-anitta-2x1-2024-jp-240502-4e0aad.jpg" style="">​</div><br>
<div class="ToggleTriggerAnchor bbCodeSpoilerContainer">
<button type="button" class="button bbCodeSpoilerButton ToggleTrigger Tooltip JsOnly" data-target="> .SpoilerTarget"><span>Spoiler: <span class="SpoilerTitle">MediaInfo - Anitta - BELLAKEO - Citi Concert Series [May-31-2024] (TODAY) 1080p WEB-DL AAC2.0 x264 CELOBRAZiL-HDMania [CC].mp4</span></span></button>
<div class="SpoilerTarget bbCodeSpoilerText"><div style="text-align: left"><br>
Format : MPEG-4<br>
Format profile : Base Media<br>
Codec ID : isom (isom/iso2/avc1/mp41)<br>
File size : 122 MiB<br>
Duration : 3 min 39 s<br>
Overall bit rate mode : Variable<br>
Overall bit rate : 4 655 kb/s<br>
Frame rate : 30.000 FPS<br>
Writing application : Lavf60.16.100<br>
<br>
Video<br>
ID : 1<br>
Format : AVC<br>
Format/Info : Advanced Video Codec<br>
Format profile : High@L4<br>
Format settings : CABAC / 4 Ref Frames<br>
Format settings, CABAC : Yes<br>
Format settings, Reference frames : 4 frames<br>
Codec ID : avc1<br>
Codec ID/Info : Advanced Video Coding<br>
Duration : 3 min 39 s<br>
Source duration : 3 min 39 s<br>
Bit rate mode : Constant<br>
Bit rate : 4 519 kb/s<br>
Width : 1 920 pixels<br>
Height : 1 080 pixels<br>
Display aspect ratio : 16:9<br>
Frame rate mode : Constant<br>
Frame rate : 30.000 FPS<br>
Color space : YUV<br>
Chroma subsampling : 4:2:0<br>
Bit depth : 8 bits<br>
Scan type : Progressive<br>
Bits/(Pixel*Frame) : 0.073<br>
Time code of first frame : 00:00:00:00<br>
Stream size : 113 MiB (93%)<br>
Source stream size : 118 MiB (97%)<br>
Writing library : x264 core 161<br>
Encoding settings : cabac=1 / ref=3 / deblock=1:0:0 / analyse=0x3:0x113 / me=hex / subme=7 / psy=1 / psy_rd=1.00:0.00 / mixed_ref=1 / me_range=16 / chroma_me=1 / trellis=1 / 8x8dct=1 / cqm=0 / deadzone=21,11 / fast_pskip=1 / chroma_qp_offset=-2 / threads=28 / lookahead_threads=4 / sliced_threads=0 / nr=0 / decimate=1 / interlaced=0 / bluray_compat=0 / constrained_intra=0 / bframes=3 / b_pyramid=2 / b_adapt=1 / b_bias=0 / direct=1 / weightb=1 / open_gop=0 / weightp=2 / keyint=75 / keyint_min=7 / scenecut=0 / intra_refresh=0 / rc_lookahead=40 / rc=cbr / mbtree=1 / bitrate=4500 / ratetol=1.0 / qcomp=0.60 / qpmin=0 / qpmax=51 / qpstep=4 / vbv_maxrate=4500 / vbv_bufsize=4500 / nal_hrd=cbr / filler=1 / ip_ratio=1.40 / aq=1:1.00<br>
Color range : Limited<br>
Color primaries : BT.709<br>
Transfer characteristics : BT.709<br>
Matrix coefficients : BT.709<br>
Codec configuration box : avcC<br>
<br>
Audio<br>
ID : 2<br>
Format : AAC LC<br>
Format/Info : Advanced Audio Codec Low Complexity<br>
Codec ID : mp4a-40-2<br>
Duration : 3 min 39 s<br>
Bit rate mode : Variable<br>
Bit rate : 128 kb/s<br>
Maximum bit rate : 130 kb/s<br>
Channel(s) : 2 channels<br>
Channel layout : L R<br>
Sampling rate : 44.1 kHz<br>
Frame rate : 43.066 FPS (1024 SPF)<br>
Compression mode : Lossy<br>
Stream size : 3.35 MiB (3%)<br>
Default : Yes<br>
Alternate group : 1<br>
<br>
Text #1<br>
ID : 1-CC1<br>
Format : EIA-608<br>
Muxing mode : SCTE 128 / DTVCC Transport<br>
Muxing mode, more info : Muxed in Video #1<br>
Duration : 3 min 39 s<br>
Start time (commands) : 2 s 33 ms<br>
Start time : 2 s 167 ms<br>
Bit rate mode : Constant<br>
Stream size : 0.00 Byte (0%)<br>
Count of frames before first event : 128<br>
Type of the first event : RollUp<br>
<br>
Text #2<br>
ID : 1-1<br>
Format : EIA-708<br>
Muxing mode : SCTE 128 / DTVCC Transport<br>
Muxing mode, more info : Muxed in Video #1<br>
Duration : 3 min 39 s<br>
Bit rate mode : Constant<br>
Stream size : 0.00 Byte (0%)<br>
​</div></div>
</div><br>
<div class="ToggleTriggerAnchor bbCodeSpoilerContainer">
<button type="button" class="button bbCodeSpoilerButton ToggleTrigger Tooltip JsOnly" data-target="> .SpoilerTarget"><span>Spoiler: <span class="SpoilerTitle">MediaInfo - Anitta - Envolver - Citi Concert Series [May-31-2024] (TODAY) 1080p WEB-DL AAC2.0 x264 CELOBRAZiL-HDMania [CC].mp4</span></span></button>
<div class="SpoilerTarget bbCodeSpoilerText"><div style="text-align: left"><br>
Format : MPEG-4<br>
Format profile : Base Media<br>
Codec ID : isom (isom/iso2/avc1/mp41)<br>
File size : 101 MiB<br>
Duration : 3 min 1 s<br>
Overall bit rate mode : Variable<br>
Overall bit rate : 4 654 kb/s<br>
Frame rate : 30.000 FPS<br>
Writing application : Lavf60.16.100<br>
<br>
Video<br>
ID : 1<br>
Format : AVC<br>
Format/Info : Advanced Video Codec<br>
Format profile : High@L4<br>
Format settings : CABAC / 4 Ref Frames<br>
Format settings, CABAC : Yes<br>
Format settings, Reference frames : 4 frames<br>
Codec ID : avc1<br>
Codec ID/Info : Advanced Video Coding<br>
Duration : 3 min 1 s<br>
Source duration : 3 min 1 s<br>
Bit rate mode : Constant<br>
Bit rate : 4 519 kb/s<br>
Width : 1 920 pixels<br>
Height : 1 080 pixels<br>
Display aspect ratio : 16:9<br>
Frame rate mode : Constant<br>
Frame rate : 30.000 FPS<br>
Color space : YUV<br>
Chroma subsampling : 4:2:0<br>
Bit depth : 8 bits<br>
Scan type : Progressive<br>
Bits/(Pixel*Frame) : 0.073<br>
Time code of first frame : 00:00:00:00<br>
Stream size : 93.6 MiB (93%)<br>
Source stream size : 97.7 MiB (97%)<br>
Writing library : x264 core 161<br>
Encoding settings : cabac=1 / ref=3 / deblock=1:0:0 / analyse=0x3:0x113 / me=hex / subme=7 / psy=1 / psy_rd=1.00:0.00 / mixed_ref=1 / me_range=16 / chroma_me=1 / trellis=1 / 8x8dct=1 / cqm=0 / deadzone=21,11 / fast_pskip=1 / chroma_qp_offset=-2 / threads=28 / lookahead_threads=4 / sliced_threads=0 / nr=0 / decimate=1 / interlaced=0 / bluray_compat=0 / constrained_intra=0 / bframes=3 / b_pyramid=2 / b_adapt=1 / b_bias=0 / direct=1 / weightb=1 / open_gop=0 / weightp=2 / keyint=75 / keyint_min=7 / scenecut=0 / intra_refresh=0 / rc_lookahead=40 / rc=cbr / mbtree=1 / bitrate=4500 / ratetol=1.0 / qcomp=0.60 / qpmin=0 / qpmax=51 / qpstep=4 / vbv_maxrate=4500 / vbv_bufsize=4500 / nal_hrd=cbr / filler=1 / ip_ratio=1.40 / aq=1:1.00<br>
Color range : Limited<br>
Color primaries : BT.709<br>
Transfer characteristics : BT.709<br>
Matrix coefficients : BT.709<br>
Codec configuration box : avcC<br>
<br>
Audio<br>
ID : 2<br>
Format : AAC LC<br>
Format/Info : Advanced Audio Codec Low Complexity<br>
Codec ID : mp4a-40-2<br>
Duration : 3 min 1 s<br>
Bit rate mode : Variable<br>
Bit rate : 128 kb/s<br>
Maximum bit rate : 130 kb/s<br>
Channel(s) : 2 channels<br>
Channel layout : L R<br>
Sampling rate : 44.1 kHz<br>
Frame rate : 43.066 FPS (1024 SPF)<br>
Compression mode : Lossy<br>
Stream size : 2.77 MiB (3%)<br>
Default : Yes<br>
Alternate group : 1<br>
<br>
Text #1<br>
ID : 1-CC1<br>
Format : EIA-608<br>
Muxing mode : SCTE 128 / DTVCC Transport<br>
Muxing mode, more info : Muxed in Video #1<br>
Duration : 3 min 1 s<br>
Start time (commands) : 1 s 500 ms<br>
Start time : 1 s 633 ms<br>
Bit rate mode : Constant<br>
Stream size : 0.00 Byte (0%)<br>
Count of frames before first event : 163<br>
Type of the first event : RollUp<br>
<br>
Text #2<br>
ID : 1-1<br>
Format : EIA-708<br>
Muxing mode : SCTE 128 / DTVCC Transport<br>
Muxing mode, more info : Muxed in Video #1<br>
Duration : 3 min 1 s<br>
Bit rate mode : Constant<br>
Stream size : 0.00 Byte (0%)<br>
​</div></div>
</div><br>
<div class="ToggleTriggerAnchor bbCodeSpoilerContainer">
<button type="button" class="button bbCodeSpoilerButton ToggleTrigger Tooltip JsOnly" data-target="> .SpoilerTarget"><span>Spoiler: <span class="SpoilerTitle">MediaInfo - Anitta - Fria - Citi Concert Series [May-31-2024] (TODAY) 1080p WEB-DL AAC2.0 x264 CELOBRAZiL-HDMania [CC].mp4</span></span></button>
<div class="SpoilerTarget bbCodeSpoilerText"><div style="text-align: left"><br>
Format : MPEG-4<br>
Format profile : Base Media<br>
Codec ID : isom (isom/iso2/avc1/mp41)<br>
File size : 56.6 MiB<br>
Duration : 1 min 42 s<br>
Overall bit rate mode : Variable<br>
Overall bit rate : 4 649 kb/s<br>
Frame rate : 30.000 FPS<br>
Writing application : Lavf60.16.100<br>
<br>
Video<br>
ID : 1<br>
Format : AVC<br>
Format/Info : Advanced Video Codec<br>
Format profile : High@L4<br>
Format settings : CABAC / 4 Ref Frames<br>
Format settings, CABAC : Yes<br>
Format settings, Reference frames : 4 frames<br>
Codec ID : avc1<br>
Codec ID/Info : Advanced Video Coding<br>
Duration : 1 min 42 s<br>
Source duration : 1 min 42 s<br>
Bit rate mode : Constant<br>
Bit rate : 4 515 kb/s<br>
Width : 1 920 pixels<br>
Height : 1 080 pixels<br>
Display aspect ratio : 16:9<br>
Frame rate mode : Constant<br>
Frame rate : 30.000 FPS<br>
Color space : YUV<br>
Chroma subsampling : 4:2:0<br>
Bit depth : 8 bits<br>
Scan type : Progressive<br>
Bits/(Pixel*Frame) : 0.073<br>
Time code of first frame : 00:00:00:00<br>
Stream size : 52.7 MiB (93%)<br>
Source stream size : 55.0 MiB (97%)<br>
Writing library : x264 core 161<br>
Encoding settings : cabac=1 / ref=3 / deblock=1:0:0 / analyse=0x3:0x113 / me=hex / subme=7 / psy=1 / psy_rd=1.00:0.00 / mixed_ref=1 / me_range=16 / chroma_me=1 / trellis=1 / 8x8dct=1 / cqm=0 / deadzone=21,11 / fast_pskip=1 / chroma_qp_offset=-2 / threads=28 / lookahead_threads=4 / sliced_threads=0 / nr=0 / decimate=1 / interlaced=0 / bluray_compat=0 / constrained_intra=0 / bframes=3 / b_pyramid=2 / b_adapt=1 / b_bias=0 / direct=1 / weightb=1 / open_gop=0 / weightp=2 / keyint=75 / keyint_min=7 / scenecut=0 / intra_refresh=0 / rc_lookahead=40 / rc=cbr / mbtree=1 / bitrate=4500 / ratetol=1.0 / qcomp=0.60 / qpmin=0 / qpmax=51 / qpstep=4 / vbv_maxrate=4500 / vbv_bufsize=4500 / nal_hrd=cbr / filler=1 / ip_ratio=1.40 / aq=1:1.00<br>
Color range : Limited<br>
Color primaries : BT.709<br>
Transfer characteristics : BT.709<br>
Matrix coefficients : BT.709<br>
Codec configuration box : avcC<br>
<br>
Audio<br>
ID : 2<br>
Format : AAC LC<br>
Format/Info : Advanced Audio Codec Low Complexity<br>
Codec ID : mp4a-40-2<br>
Duration : 1 min 42 s<br>
Bit rate mode : Variable<br>
Bit rate : 128 kb/s<br>
Maximum bit rate : 130 kb/s<br>
Channel(s) : 2 channels<br>
Channel layout : L R<br>
Sampling rate : 44.1 kHz<br>
Frame rate : 43.066 FPS (1024 SPF)<br>
Compression mode : Lossy<br>
Stream size : 1.56 MiB (3%)<br>
Default : Yes<br>
Alternate group : 1<br>
<br>
Text #1<br>
ID : 1-CC1<br>
Format : EIA-608<br>
Muxing mode : SCTE 128 / DTVCC Transport<br>
Muxing mode, more info : Muxed in Video #1<br>
Duration : 1 min 42 s<br>
Start time (commands) : 667 ms<br>
Start time : 667 ms<br>
Bit rate mode : Constant<br>
Stream size : 0.00 Byte (0%)<br>
Count of frames before first event : 36<br>
Type of the first event : RollUp<br>
<br>
Text #2<br>
ID : 1-1<br>
Format : EIA-708<br>
Muxing mode : SCTE 128 / DTVCC Transport<br>
Muxing mode, more info : Muxed in Video #1<br>
Duration : 1 min 42 s<br>
Bit rate mode : Constant<br>
Stream size : 0.00 Byte (0%)<br>
​</div></div>
</div><br>
<div class="ToggleTriggerAnchor bbCodeSpoilerContainer">
<button type="button" class="button bbCodeSpoilerButton ToggleTrigger Tooltip JsOnly" data-target="> .SpoilerTarget"><span>Spoiler: <span class="SpoilerTitle">MediaInfo - Anitta - Lose Ya Breath + Cria de Favela - Citi Concert Series [May-31-2024] (TODAY) 1080p WEB-DL AAC2.0 x264 CELOBRAZiL-HDMania [CC].mp4</span></span></button>
<div class="SpoilerTarget bbCodeSpoilerText"><div style="text-align: left"><br>
Format : MPEG-4<br>
Format profile : Base Media<br>
Codec ID : isom (isom/iso2/avc1/mp41)<br>
File size : 113 MiB<br>
Duration : 3 min 23 s<br>
Overall bit rate mode : Variable<br>
Overall bit rate : 4 653 kb/s<br>
Frame rate : 30.000 FPS<br>
Writing application : Lavf60.16.100<br>
<br>
Video<br>
ID : 1<br>
Format : AVC<br>
Format/Info : Advanced Video Codec<br>
Format profile : High@L4<br>
Format settings : CABAC / 4 Ref Frames<br>
Format settings, CABAC : Yes<br>
Format settings, Reference frames : 4 frames<br>
Codec ID : avc1<br>
Codec ID/Info : Advanced Video Coding<br>
Duration : 3 min 23 s<br>
Source duration : 3 min 23 s<br>
Bit rate mode : Constant<br>
Bit rate : 4 517 kb/s<br>
Width : 1 920 pixels<br>
Height : 1 080 pixels<br>
Display aspect ratio : 16:9<br>
Frame rate mode : Constant<br>
Frame rate : 30.000 FPS<br>
Color space : YUV<br>
Chroma subsampling : 4:2:0<br>
Bit depth : 8 bits<br>
Scan type : Progressive<br>
Bits/(Pixel*Frame) : 0.073<br>
Time code of first frame : 00:00:00:00<br>
Stream size : 105 MiB (93%)<br>
Source stream size : 110 MiB (97%)<br>
Writing library : x264 core 161<br>
Encoding settings : cabac=1 / ref=3 / deblock=1:0:0 / analyse=0x3:0x113 / me=hex / subme=7 / psy=1 / psy_rd=1.00:0.00 / mixed_ref=1 / me_range=16 / chroma_me=1 / trellis=1 / 8x8dct=1 / cqm=0 / deadzone=21,11 / fast_pskip=1 / chroma_qp_offset=-2 / threads=28 / lookahead_threads=4 / sliced_threads=0 / nr=0 / decimate=1 / interlaced=0 / bluray_compat=0 / constrained_intra=0 / bframes=3 / b_pyramid=2 / b_adapt=1 / b_bias=0 / direct=1 / weightb=1 / open_gop=0 / weightp=2 / keyint=75 / keyint_min=7 / scenecut=0 / intra_refresh=0 / rc_lookahead=40 / rc=cbr / mbtree=1 / bitrate=4500 / ratetol=1.0 / qcomp=0.60 / qpmin=0 / qpmax=51 / qpstep=4 / vbv_maxrate=4500 / vbv_bufsize=4500 / nal_hrd=cbr / filler=1 / ip_ratio=1.40 / aq=1:1.00<br>
Color range : Limited<br>
Color primaries : BT.709<br>
Transfer characteristics : BT.709<br>
Matrix coefficients : BT.709<br>
Codec configuration box : avcC<br>
<br>
Audio<br>
ID : 2<br>
Format : AAC LC<br>
Format/Info : Advanced Audio Codec Low Complexity<br>
Codec ID : mp4a-40-2<br>
Duration : 3 min 23 s<br>
Bit rate mode : Variable<br>
Bit rate : 128 kb/s<br>
Maximum bit rate : 130 kb/s<br>
Channel(s) : 2 channels<br>
Channel layout : L R<br>
Sampling rate : 44.1 kHz<br>
Frame rate : 43.066 FPS (1024 SPF)<br>
Compression mode : Lossy<br>
Stream size : 3.11 MiB (3%)<br>
Default : Yes<br>
Alternate group : 1<br>
<br>
Text #1<br>
ID : 1-CC1<br>
Format : EIA-608<br>
Muxing mode : SCTE 128 / DTVCC Transport<br>
Muxing mode, more info : Muxed in Video #1<br>
Duration : 3 min 23 s<br>
Start time (commands) : 6 s 100 ms<br>
Start time : 6 s 233 ms<br>
Bit rate mode : Constant<br>
Stream size : 0.00 Byte (0%)<br>
Count of frames before first event : 199<br>
Type of the first event : RollUp<br>
<br>
Text #2<br>
ID : 1-1<br>
Format : EIA-708<br>
Muxing mode : SCTE 128 / DTVCC Transport<br>
Muxing mode, more info : Muxed in Video #1<br>
Duration : 3 min 23 s<br>
Bit rate mode : Constant<br>
Stream size : 0.00 Byte (0%)<br>
​</div></div>
</div><br>
<div class="ToggleTriggerAnchor bbCodeSpoilerContainer">
<button type="button" class="button bbCodeSpoilerButton ToggleTrigger Tooltip JsOnly" data-target="> .SpoilerTarget"><span>Spoiler: <span class="SpoilerTitle">MediaInfo - Anitta talks bond with fans, ‘Funk Generation’ album - Citi Concert Series [May-31-2024] (TODAY) 1080p WEB-DL AAC2.0 x264 CELOBRAZiL-HDMania [CC].mp4</span></span></button>
<div class="SpoilerTarget bbCodeSpoilerText"><div style="text-align: left"><br>
Format : MPEG-4<br>
Format profile : Base Media<br>
Codec ID : isom (isom/iso2/avc1/mp41)<br>
File size : 81.0 MiB<br>
Duration : 2 min 25 s<br>
Overall bit rate mode : Variable<br>
Overall bit rate : 4 653 kb/s<br>
Frame rate : 30.000 FPS<br>
Writing application : Lavf60.16.100<br>
<br>
Video<br>
ID : 1<br>
Format : AVC<br>
Format/Info : Advanced Video Codec<br>
Format profile : High@L4<br>
Format settings : CABAC / 4 Ref Frames<br>
Format settings, CABAC : Yes<br>
Format settings, Reference frames : 4 frames<br>
Codec ID : avc1<br>
Codec ID/Info : Advanced Video Coding<br>
Duration : 2 min 25 s<br>
Source duration : 2 min 25 s<br>
Bit rate mode : Constant<br>
Bit rate : 4 518 kb/s<br>
Width : 1 920 pixels<br>
Height : 1 080 pixels<br>
Display aspect ratio : 16:9<br>
Frame rate mode : Constant<br>
Frame rate : 30.000 FPS<br>
Color space : YUV<br>
Chroma subsampling : 4:2:0<br>
Bit depth : 8 bits<br>
Scan type : Progressive<br>
Bits/(Pixel*Frame) : 0.073<br>
Time code of first frame : 00:00:00:00<br>
Stream size : 75.3 MiB (93%)<br>
Source stream size : 78.6 MiB (97%)<br>
Writing library : x264 core 161<br>
Encoding settings : cabac=1 / ref=3 / deblock=1:0:0 / analyse=0x3:0x113 / me=hex / subme=7 / psy=1 / psy_rd=1.00:0.00 / mixed_ref=1 / me_range=16 / chroma_me=1 / trellis=1 / 8x8dct=1 / cqm=0 / deadzone=21,11 / fast_pskip=1 / chroma_qp_offset=-2 / threads=24 / lookahead_threads=4 / sliced_threads=0 / nr=0 / decimate=1 / interlaced=0 / bluray_compat=0 / constrained_intra=0 / bframes=3 / b_pyramid=2 / b_adapt=1 / b_bias=0 / direct=1 / weightb=1 / open_gop=0 / weightp=2 / keyint=75 / keyint_min=7 / scenecut=0 / intra_refresh=0 / rc_lookahead=40 / rc=cbr / mbtree=1 / bitrate=4500 / ratetol=1.0 / qcomp=0.60 / qpmin=0 / qpmax=51 / qpstep=4 / vbv_maxrate=4500 / vbv_bufsize=4500 / nal_hrd=cbr / filler=1 / ip_ratio=1.40 / aq=1:1.00<br>
Color range : Limited<br>
Color primaries : BT.709<br>
Transfer characteristics : BT.709<br>
Matrix coefficients : BT.709<br>
Codec configuration box : avcC<br>
<br>
Audio<br>
ID : 2<br>
Format : AAC LC<br>
Format/Info : Advanced Audio Codec Low Complexity<br>
Codec ID : mp4a-40-2<br>
Duration : 2 min 25 s<br>
Bit rate mode : Variable<br>
Bit rate : 128 kb/s<br>
Maximum bit rate : 130 kb/s<br>
Channel(s) : 2 channels<br>
Channel layout : L R<br>
Sampling rate : 48.0 kHz<br>
Frame rate : 46.875 FPS (1024 SPF)<br>
Compression mode : Lossy<br>
Stream size : 2.23 MiB (3%)<br>
Default : Yes<br>
Alternate group : 1<br>
<br>
Text #1<br>
ID : 1-CC1<br>
Format : EIA-608<br>
Muxing mode : SCTE 128 / DTVCC Transport<br>
Muxing mode, more info : Muxed in Video #1<br>
Duration : 2 min 25 s<br>
Start time (commands) : 544 ms<br>
Start time : 677 ms<br>
Bit rate mode : Constant<br>
Stream size : 0.00 Byte (0%)<br>
Count of frames before first event : 211<br>
Type of the first event : RollUp<br>
<br>
Text #2<br>
ID : 1-1<br>
Format : EIA-708<br>
Muxing mode : SCTE 128 / DTVCC Transport<br>
Muxing mode, more info : Muxed in Video #1<br>
Duration : 2 min 25 s<br>
Bit rate mode : Constant<br>
Stream size : 0.00 Byte (0%)<br>
​</div></div>
</div><br>
<div class="ToggleTriggerAnchor bbCodeSpoilerContainer">
<button type="button" class="button bbCodeSpoilerButton ToggleTrigger Tooltip JsOnly" data-target="> .SpoilerTarget"><span>Spoiler: <span class="SpoilerTitle">MediaInfo - Anitta talks making her album 'Funk Generation' in the hospital - Citi Concert Series [May-31-2024] (TODAY) 1080p WEB-DL AAC2.0 x264 CELOBRAZiL-HDMania [CC].mp4</span></span></button>
<div class="SpoilerTarget bbCodeSpoilerText"><div style="text-align: left"><br>
Format : MPEG-4<br>
Format profile : Base Media<br>
Codec ID : isom (isom/iso2/avc1/mp41)<br>
File size : 137 MiB<br>
Duration : 4 min 6 s<br>
Overall bit rate mode : Variable<br>
Overall bit rate : 4 653 kb/s<br>
Frame rate : 30.000 FPS<br>
Writing application : Lavf60.16.100<br>
<br>
Video<br>
ID : 1<br>
Format : AVC<br>
Format/Info : Advanced Video Codec<br>
Format profile : High@L4<br>
Format settings : CABAC / 4 Ref Frames<br>
Format settings, CABAC : Yes<br>
Format settings, Reference frames : 4 frames<br>
Codec ID : avc1<br>
Codec ID/Info : Advanced Video Coding<br>
Duration : 4 min 6 s<br>
Source duration : 4 min 6 s<br>
Bit rate mode : Constant<br>
Bit rate : 4 518 kb/s<br>
Width : 1 920 pixels<br>
Height : 1 080 pixels<br>
Display aspect ratio : 16:9<br>
Frame rate mode : Constant<br>
Frame rate : 30.000 FPS<br>
Color space : YUV<br>
Chroma subsampling : 4:2:0<br>
Bit depth : 8 bits<br>
Scan type : Progressive<br>
Bits/(Pixel*Frame) : 0.073<br>
Time code of first frame : 00:00:00:00<br>
Stream size : 127 MiB (93%)<br>
Source stream size : 133 MiB (97%)<br>
Writing library : x264 core 161<br>
Encoding settings : cabac=1 / ref=3 / deblock=1:0:0 / analyse=0x3:0x113 / me=hex / subme=7 / psy=1 / psy_rd=1.00:0.00 / mixed_ref=1 / me_range=16 / chroma_me=1 / trellis=1 / 8x8dct=1 / cqm=0 / deadzone=21,11 / fast_pskip=1 / chroma_qp_offset=-2 / threads=28 / lookahead_threads=4 / sliced_threads=0 / nr=0 / decimate=1 / interlaced=0 / bluray_compat=0 / constrained_intra=0 / bframes=3 / b_pyramid=2 / b_adapt=1 / b_bias=0 / direct=1 / weightb=1 / open_gop=0 / weightp=2 / keyint=75 / keyint_min=7 / scenecut=0 / intra_refresh=0 / rc_lookahead=40 / rc=cbr / mbtree=1 / bitrate=4500 / ratetol=1.0 / qcomp=0.60 / qpmin=0 / qpmax=51 / qpstep=4 / vbv_maxrate=4500 / vbv_bufsize=4500 / nal_hrd=cbr / filler=1 / ip_ratio=1.40 / aq=1:1.00<br>
Color range : Limited<br>
Color primaries : BT.709<br>
Transfer characteristics : BT.709<br>
Matrix coefficients : BT.709<br>
Codec configuration box : avcC<br>
<br>
Audio<br>
ID : 2<br>
Format : AAC LC<br>
Format/Info : Advanced Audio Codec Low Complexity<br>
Codec ID : mp4a-40-2<br>
Duration : 4 min 6 s<br>
Bit rate mode : Variable<br>
Bit rate : 128 kb/s<br>
Maximum bit rate : 130 kb/s<br>
Channel(s) : 2 channels<br>
Channel layout : L R<br>
Sampling rate : 48.0 kHz<br>
Frame rate : 46.875 FPS (1024 SPF)<br>
Compression mode : Lossy<br>
Stream size : 3.76 MiB (3%)<br>
Default : Yes<br>
Alternate group : 1<br>
<br>
Text #1<br>
ID : 1-CC1<br>
Format : EIA-608<br>
Muxing mode : SCTE 128 / DTVCC Transport<br>
Muxing mode, more info : Muxed in Video #1<br>
Duration : 4 min 6 s<br>
Start time (commands) : 5124095 h<br>
Start time : 5124095 h<br>
Bit rate mode : Constant<br>
Stream size : 0.00 Byte (0%)<br>
Count of frames before first event : 167<br>
Type of the first event : RollUp<br>
<br>
Text #2<br>
ID : 1-1<br>
Format : EIA-708<br>
Muxing mode : SCTE 128 / DTVCC Transport<br>
Muxing mode, more info : Muxed in Video #1<br>
Duration : 4 min 6 s<br>
Bit rate mode : Constant<br>
Stream size : 0.00 Byte (0%)<br>
​</div></div>
</div><br>
<div style="text-align: center"><br>
<b>Link(s):</b><br>
<br>
<div class="bbCodeBlock bbCodeVfcHH HiddenContent">
<div class="attribution type">Hidden Content:</div>
<blockquote>You must either reply or click 'Like' to see the hidden information contained here.</blockquote>
</div></div>
<div class="messageTextEndMarker">&nbsp;</div>
</blockquote>
</article>]]></description>
                <author><![CDATA[CELOBRAZiL]]></author>
                </item>

                </channel></rss>